<?xml version="1.0" encoding="UTF-8"?>
<!DOCTYPE svg PUBLIC "-//W3C//DTD SVG 1.1//EN" "http://www.w3.org/Graphics/SVG/1.1/DTD/svg11.dtd">
<svg xmlns="http://www.w3.org/2000/svg" version="1.1" width="167px" height="54px" style="shape-rendering:geometricPrecision; text-rendering:geometricPrecision; image-rendering:optimizeQuality; fill-rule:evenodd; clip-rule:evenodd" xmlns:xlink="http://www.w3.org/1999/xlink">
<g><path style="opacity:1" fill="#fefefd" d="M -0.5,-0.5 C 55.1667,-0.5 110.833,-0.5 166.5,-0.5C 166.5,17.5 166.5,35.5 166.5,53.5C 110.833,53.5 55.1667,53.5 -0.5,53.5C -0.5,35.5 -0.5,17.5 -0.5,-0.5 Z"/></g>
<g><path style="opacity:1" fill="#20171d" d="M 100.5,13.5 C 101.5,13.5 102.5,13.5 103.5,13.5C 103.5,14.5 103.5,15.5 103.5,16.5C 102.5,16.5 101.5,16.5 100.5,16.5C 100.5,15.5 100.5,14.5 100.5,13.5 Z"/></g>
<g><path style="opacity:1" fill="#3d2e2d" d="M 83.5,18.5 C 86.2384,19.2372 88.905,19.2372 91.5,18.5C 93.1073,18.637 94.4406,19.3036 95.5,20.5C 96.4328,24.4295 96.7662,28.4295 96.5,32.5C 95.5,32.5 94.5,32.5 93.5,32.5C 93.665,29.1501 93.4983,25.8168 93,22.5C 91.3333,21.1667 89.6667,21.1667 88,22.5C 87.5017,25.8168 87.335,29.1501 87.5,32.5C 86.1667,32.5 84.8333,32.5 83.5,32.5C 83.5,27.8333 83.5,23.1667 83.5,18.5 Z"/></g>
<g><path style="opacity:1" fill="#261d26" d="M 107.5,29.5 C 106.167,26.8333 106.167,24.1667 107.5,21.5C 110.266,18.0235 113.432,17.6901 117,20.5C 117.71,19.0267 118.876,18.3601 120.5,18.5C 120.5,25.1667 120.5,31.8333 120.5,38.5C 119.5,38.5 118.5,38.5 117.5,38.5C 117.664,35.8127 117.497,33.146 117,30.5C 113.341,33.4601 110.174,33.1268 107.5,29.5 Z"/></g>
<g><path style="opacity:1" fill="#232432" d="M 67.5,18.5 C 68.5,18.5 69.5,18.5 70.5,18.5C 70.335,21.8499 70.5017,25.1832 71,28.5C 73,29.8333 75,29.8333 77,28.5C 77.4983,25.1832 77.665,21.8499 77.5,18.5C 78.5,18.5 79.5,18.5 80.5,18.5C 80.5,23.1667 80.5,27.8333 80.5,32.5C 78.8762,32.6399 77.7096,31.9733 77,30.5C 73.5558,33.4704 70.5558,33.1371 68,29.5C 67.5014,25.8484 67.3347,22.1817 67.5,18.5 Z"/></g>
<g><path style="opacity:1" fill="#1f1b2b" d="M 100.5,18.5 C 101.5,18.5 102.5,18.5 103.5,18.5C 103.5,23.1667 103.5,27.8333 103.5,32.5C 102.5,32.5 101.5,32.5 100.5,32.5C 100.5,27.8333 100.5,23.1667 100.5,18.5 Z"/></g>
<g><path style="opacity:1" fill="#cf37f8" d="M 39.5,21.5 C 36.8333,21.5 34.1667,21.5 31.5,21.5C 34.1667,17.5 36.8333,17.5 39.5,21.5 Z"/></g>
<g><path style="opacity:1" fill="#edece9" d="M 111.5,21.5 C 117.488,21.664 118.821,24.164 115.5,29C 112.099,30.1351 110.099,28.9684 109.5,25.5C 109.803,23.8857 110.47,22.5523 111.5,21.5 Z"/></g>
<g><path style="opacity:1" fill="#a563f3" d="M 31.5,21.5 C 34.1667,21.5 36.8333,21.5 39.5,21.5C 40.404,22.209 40.7373,23.209 40.5,24.5C 37.1667,24.5 33.8333,24.5 30.5,24.5C 30.2627,23.209 30.596,22.209 31.5,21.5 Z"/></g>
<g><path style="opacity:1" fill="#edbf87" d="M 107.5,21.5 C 106.167,24.1667 106.167,26.8333 107.5,29.5C 106.007,28.6879 105.34,27.3545 105.5,25.5C 105.34,23.6455 106.007,22.3121 107.5,21.5 Z"/></g>
<g><path style="opacity:1" fill="#639be9" d="M 40.5,24.5 C 39.1724,28.254 36.5058,29.4207 32.5,28C 31.695,26.8873 31.0283,25.7206 30.5,24.5C 33.8333,24.5 37.1667,24.5 40.5,24.5 Z"/></g>
</svg>
